<svg width="26" height="22" viewBox="0 0 26 22" fill="none" xmlns="http://www.w3.org/2000/svg">
<path fill-rule="evenodd" clip-rule="evenodd" d="M1 4.0665V4.0665C1 4.8665 1.4 5.53317 2.06667 6.0665L10.0667 11.5332C11.9333 12.7332 14.2 12.7332 16.0667 11.5332L24.0667 6.19984C24.6 5.53317 25 4.8665 25 4.0665V4.0665C25 2.73317 23.9333 1.6665 22.6 1.6665H3.4C2.06667 1.6665 1 2.73317 1 4.0665Z" stroke="#FAFAFA" stroke-width="1.5" stroke-linecap="round" stroke-linejoin="round"/>
<path d="M1 4.33301V17.6663C1 19.133 2.2 20.333 3.66667 20.333H22.3333C23.8 20.333 25 19.133 25 17.6663V4.33301" stroke="#FAFAFA" stroke-width="1.5" stroke-linecap="round" stroke-linejoin="round"/>
<path d="M1.78418 19.5492L9.90951 11.4238" stroke="#FAFAFA" stroke-width="1.5" stroke-linecap="round" stroke-linejoin="round"/>
<path d="M16.1465 11.48L24.2158 19.5493" stroke="#FAFAFA" stroke-width="2" stroke-linecap="round" stroke-linejoin="round"/>
</svg>
