<svg width="32" height="32" viewBox="0 0 32 32" fill="none" xmlns="http://www.w3.org/2000/svg">
<path fill-rule="evenodd" clip-rule="evenodd" d="M10 4H22.0053C25.316 4 28 6.684 28 9.99467V22.0067C28 25.316 25.316 28 22.0053 28H9.99467C6.684 28 4 25.316 4 22.0053V10C4 6.68667 6.68667 4 10 4V4Z" stroke="#FAFAFA" stroke-width="1.5" stroke-linecap="round" stroke-linejoin="round"/>
<path d="M10.8268 14.7998V21.9998" stroke="#FAFAFA" stroke-width="2" stroke-linecap="round" stroke-linejoin="round"/>
<path d="M15.6255 21.9998V17.7998C15.6255 16.1425 16.9682 14.7998 18.6255 14.7998V14.7998C20.2828 14.7998 21.6255 16.1425 21.6255 17.7998V21.9998" stroke="#FAFAFA" stroke-width="2" stroke-linecap="round" stroke-linejoin="round"/>
<path d="M10.824 10.4507C10.6587 10.4507 10.524 10.5853 10.5254 10.7507C10.5254 10.916 10.66 11.0507 10.8254 11.0507C10.9907 11.0507 11.1254 10.916 11.1254 10.7507C11.1254 10.584 10.9907 10.4507 10.824 10.4507" stroke="#FAFAFA" stroke-width="2" stroke-linecap="round" stroke-linejoin="round"/>
</svg>
