<svg width="32" height="32" viewBox="0 0 32 32" fill="none" xmlns="http://www.w3.org/2000/svg">
<path fill-rule="evenodd" clip-rule="evenodd" d="M28.7772 8.49749C28.4718 7.15882 27.5678 6.10282 26.4185 5.74015C24.3398 5.09082 15.9998 5.09082 15.9998 5.09082C15.9998 5.09082 7.66384 5.09082 5.58117 5.74015C4.43584 6.09749 3.53184 7.15349 3.2225 8.49749C2.6665 10.9268 2.6665 16.0002 2.6665 16.0002C2.6665 16.0002 2.6665 21.0735 3.2225 23.5028C3.52784 24.8415 4.43184 25.8975 5.58117 26.2602C7.66384 26.9095 15.9998 26.9095 15.9998 26.9095C15.9998 26.9095 24.3398 26.9095 26.4185 26.2602C27.5638 25.9028 28.4678 24.8468 28.7772 23.5028C29.3332 21.0735 29.3332 16.0002 29.3332 16.0002C29.3332 16.0002 29.3332 10.9268 28.7772 8.49749Z" stroke="#FAFAFA" stroke-width="1.5" stroke-linecap="round" stroke-linejoin="round"/>
<path fill-rule="evenodd" clip-rule="evenodd" d="M13.3359 20L20.2639 16L13.3359 12V20Z" stroke="#FAFAFA" stroke-width="1.5" stroke-linecap="round" stroke-linejoin="round"/>
</svg>
